<svg xmlns="http://www.w3.org/2000/svg" xmlns:xlink="http://www.w3.org/1999/xlink" version="1.1" id="Lag_1" x="0px" y="0px" viewBox="0 0 256 170" style="enable-background:new 0 0 256 170;" xml:space="preserve" width="256"  height="170" >
<style type="text/css">
	.st0{fill:#FF5F00;}
	.st1{fill:#EB001B;}
	.st2{fill:#F79E1B;}
</style>
<g>
	<path d="M81.51,141.18v-7.48c0-2.87-1.74-4.74-4.74-4.74c-1.5,0-3.12,0.5-4.24,2.12c-0.87-1.37-2.12-2.12-3.99-2.12   c-1.25,0-2.49,0.37-3.49,1.74v-1.5h-2.62v11.97h2.62v-6.61c0-2.12,1.12-3.12,2.87-3.12s2.62,1.12,2.62,3.12v6.61h2.62v-6.61   c0-2.12,1.25-3.12,2.87-3.12c1.74,0,2.62,1.12,2.62,3.12v6.61H81.51L81.51,141.18z M120.27,129.21h-4.24v-3.61h-2.62v3.61h-2.37   v2.37h2.37v5.48c0,2.74,1.12,4.36,4.11,4.36c1.12,0,2.37-0.37,3.24-0.87l-0.75-2.24c-0.75,0.5-1.62,0.62-2.24,0.62   c-1.25,0-1.74-0.75-1.74-1.99v-5.36h4.24V129.21L120.27,129.21z M142.46,128.96c-1.5,0-2.49,0.75-3.12,1.74v-1.5h-2.62v11.97h2.62   v-6.73c0-1.99,0.87-3.12,2.49-3.12c0.5,0,1.12,0.12,1.62,0.25l0.75-2.49C143.71,128.96,142.96,128.96,142.46,128.96L142.46,128.96   L142.46,128.96z M108.93,130.21c-1.25-0.87-2.99-1.25-4.86-1.25c-2.99,0-4.99,1.5-4.99,3.86c0,1.99,1.5,3.12,4.11,3.49l1.25,0.12   c1.37,0.25,2.12,0.62,2.12,1.25c0,0.87-1,1.5-2.74,1.5c-1.74,0-3.12-0.62-3.99-1.25l-1.25,1.99c1.37,1,3.24,1.5,5.11,1.5   c3.49,0,5.48-1.62,5.48-3.86c0-2.12-1.62-3.24-4.11-3.61l-1.25-0.12c-1.12-0.12-1.99-0.37-1.99-1.12c0-0.87,0.87-1.37,2.24-1.37   c1.5,0,2.99,0.62,3.74,1L108.93,130.21L108.93,130.21z M178.48,128.96c-1.5,0-2.49,0.75-3.12,1.74v-1.5h-2.62v11.97h2.62v-6.73   c0-1.99,0.87-3.12,2.49-3.12c0.5,0,1.12,0.12,1.62,0.25l0.75-2.49C179.73,128.96,178.98,128.96,178.48,128.96L178.48,128.96   L178.48,128.96z M145.08,135.2c0,3.61,2.49,6.23,6.36,6.23c1.74,0,2.99-0.37,4.24-1.37l-1.25-2.12c-1,0.75-1.99,1.12-3.12,1.12   c-2.12,0-3.61-1.5-3.61-3.86c0-2.24,1.5-3.74,3.61-3.86c1.12,0,2.12,0.37,3.12,1.12l1.25-2.12c-1.25-1-2.49-1.37-4.24-1.37   C147.57,128.96,145.08,131.58,145.08,135.2L145.08,135.2L145.08,135.2z M169.26,135.2v-5.98h-2.62v1.5   c-0.87-1.12-2.12-1.74-3.74-1.74c-3.37,0-5.98,2.62-5.98,6.23c0,3.61,2.62,6.23,5.98,6.23c1.74,0,2.99-0.62,3.74-1.74v1.5h2.62   V135.2z M159.66,135.2c0-2.12,1.37-3.86,3.61-3.86c2.12,0,3.61,1.62,3.61,3.86c0,2.12-1.5,3.86-3.61,3.86   C161.03,138.93,159.66,137.31,159.66,135.2L159.66,135.2z M128.38,128.96c-3.49,0-5.98,2.49-5.98,6.23c0,3.74,2.49,6.23,6.11,6.23   c1.74,0,3.49-0.5,4.86-1.62l-1.25-1.87c-1,0.75-2.24,1.25-3.49,1.25c-1.62,0-3.24-0.75-3.61-2.87h8.85v-1   C133.98,131.46,131.74,128.96,128.38,128.96L128.38,128.96L128.38,128.96z M128.38,131.21c1.62,0,2.74,1,2.99,2.87h-6.23   C125.38,132.45,126.51,131.21,128.38,131.21L128.38,131.21z M193.31,135.2v-10.72h-2.62v6.23c-0.87-1.12-2.12-1.74-3.74-1.74   c-3.37,0-5.98,2.62-5.98,6.23c0,3.61,2.62,6.23,5.98,6.23c1.74,0,2.99-0.62,3.74-1.74v1.5h2.62V135.2z M183.72,135.2   c0-2.12,1.37-3.86,3.61-3.86c2.12,0,3.61,1.62,3.61,3.86c0,2.12-1.5,3.86-3.61,3.86C185.09,138.93,183.72,137.31,183.72,135.2   L183.72,135.2z M96.22,135.2v-5.98H93.6v1.5c-0.87-1.12-2.12-1.74-3.74-1.74c-3.37,0-5.98,2.62-5.98,6.23   c0,3.61,2.62,6.23,5.98,6.23c1.74,0,2.99-0.62,3.74-1.74v1.5h2.62V135.2z M86.5,135.2c0-2.12,1.37-3.86,3.61-3.86   c2.12,0,3.61,1.62,3.61,3.86c0,2.12-1.5,3.86-3.61,3.86C87.87,138.93,86.5,137.31,86.5,135.2z"/>
	<rect x="108.06" y="38.35" class="st0" width="39.26" height="70.55"/>
	<path class="st1" d="M110.55,73.62c0-14.33,6.73-27.05,17.08-35.27c-7.6-5.98-17.2-9.6-27.67-9.6c-24.8,0-44.87,20.07-44.87,44.87   s20.07,44.87,44.87,44.87c10.47,0,20.07-3.61,27.67-9.6C117.28,100.8,110.55,87.96,110.55,73.62z"/>
	<path class="st2" d="M200.29,73.62c0,24.8-20.07,44.87-44.87,44.87c-10.47,0-20.07-3.61-27.67-9.6   c10.47-8.23,17.08-20.94,17.08-35.27s-6.73-27.05-17.08-35.27c7.6-5.98,17.2-9.6,27.67-9.6C180.23,28.75,200.29,48.95,200.29,73.62   z"/>
</g>
</svg>