<svg xmlns="http://www.w3.org/2000/svg" xmlns:xlink="http://www.w3.org/1999/xlink" version="1.1" id="Lag_1" x="0px" y="0px" viewBox="0 0 256 170" style="enable-background:new 0 0 256 170;" xml:space="preserve" width="256"  height="170" >
<style type="text/css">
	.st0{fill:#1443CB;}
</style>
<g>
	<path class="st0" d="M125.81,76.21c-0.11,8.59,7.65,13.38,13.5,16.23c6.01,2.92,8.02,4.8,8,7.41c-0.05,4-4.79,5.77-9.23,5.84   c-7.75,0.12-12.26-2.09-15.84-3.77l-2.79,13.06c3.59,1.66,10.25,3.1,17.15,3.16c16.2,0,26.8-8,26.85-20.39   c0.06-15.73-21.76-16.61-21.62-23.64c0.05-2.13,2.09-4.41,6.55-4.99c2.21-0.29,8.3-0.52,15.21,2.67l2.71-12.64   c-3.71-1.35-8.49-2.65-14.43-2.65C136.62,56.5,125.89,64.61,125.81,76.21 M192.35,57.59c-2.96,0-5.45,1.73-6.56,4.37l-23.14,55.25   h16.19l3.22-8.9h19.78l1.87,8.9h14.27l-12.45-59.63H192.35 M194.62,73.7l4.67,22.39h-12.79L194.62,73.7 M106.18,57.59l-12.76,59.63   h15.43l12.75-59.63H106.18 M83.36,57.59L67.31,98.18l-6.49-34.51c-0.76-3.85-3.77-6.08-7.11-6.08H27.45l-0.37,1.73   c5.39,1.17,11.51,3.06,15.22,5.07c2.27,1.23,2.92,2.31,3.66,5.24l12.3,47.58h16.3l24.99-59.63H83.36"/>
</g>
</svg>